<?xml version="1.0" encoding="utf-8"?>
<!-- Generator: Adobe Illustrator 27.0.0, SVG Export Plug-In . SVG Version: 6.00 Build 0)  -->
<svg version="1.1" id="Calque_1" xmlns="http://www.w3.org/2000/svg" xmlns:xlink="http://www.w3.org/1999/xlink" x="0px" y="0px"
	 viewBox="0 0 594 514.46" style="enable-background:new 0 0 594 514.46;" xml:space="preserve">
<style type="text/css">
	.st0{fill:#FFFFFF;}
</style>
<g id="Object">
	<g>
		<path class="st0" d="M594,155.45C594,69.74,524.27,0,438.58,0c-62.89,0-117.14,37.55-141.59,91.38C272.56,37.55,218.3,0,155.44,0
			C69.71,0,0,69.74,0,155.45c0,18.08,3.1,35.42,8.82,51.58c6.5,18.4,16.35,35.2,28.84,49.69c5.33,6.2,11.11,11.96,17.36,17.25
			L292.1,509.46c1.46,1.46,3.36,2.19,5.28,2.19c1.94,0,3.85-0.73,5.32-2.19l245.88-244.29l-0.02-0.03
			c15.94-15.97,28.43-35.36,36.26-56.99C590.75,191.69,594,173.94,594,155.45z"/>
	</g>
</g>
</svg>
